# xmcd
# 
# Track frame offsets:
#     150
#     21126
#     35247
#     44781
#     83269
#     105057
#     118135
#     137577
# 
# Disc length: 2133
# 
# Revision: 0
# Processed by: cddbd v1.5.2PL0 Copyright (c) Steve Scherf et al.
# Submitted via: BonkEnc v1.0.6
# 
DISCID=5f085308
DTITLE=Matt Bullard Band - Wrong Side Of Right
DYEAR=2008
DGENRE=Blues
TTITLE0=Shake Your Moneymaker
TTITLE1=Baby's a Player
TTITLE2=Grand Gesture
TTITLE3=The Thrill Is Gone
TTITLE4=One More Time
TTITLE5=Wrong Side Of Right
TTITLE6=Liar Five Times
TTITLE7=Throw 'em To The Lions
EXTD=
EXTT0=
EXTT1=
EXTT2=
EXTT3=
EXTT4=
EXTT5=
EXTT6=
EXTT7=
PLAYORDER=
